<?xml version="1.0" standalone="no"?>
<!DOCTYPE svg PUBLIC "-//W3C//DTD SVG 20010904//EN"
 "http://www.w3.org/TR/2001/REC-SVG-20010904/DTD/svg10.dtd">
<svg version="1.0" xmlns="http://www.w3.org/2000/svg"
 width="500.000000pt" height="500.000000pt" viewBox="0 0 500.000000 500.000000"
 preserveAspectRatio="xMidYMid meet">
<metadata>
Created by potrace 1.14, written by Peter Selinger 2001-2017
</metadata>
<g transform="translate(0.000000,500.000000) scale(0.100000,-0.100000)"
fill="#000000" stroke="none">
<path d="M2225 4934 c-303 -42 -532 -109 -790 -234 -258 -125 -447 -262 -665
-480 -273 -273 -452 -561 -590 -950 -36 -102 -86 -315 -101 -435 -14 -111 -14
-529 1 -651 29 -244 107 -504 227 -754 246 -514 700 -950 1218 -1171 39 -17
79 -34 90 -39 62 -28 290 -96 368 -109 32 -6 62 -13 67 -16 14 -9 274 -36 400
-42 183 -9 539 36 720 92 129 39 187 58 215 70 17 8 62 27 100 44 281 120 583
333 798 561 370 393 608 909 657 1425 27 293 -2 649 -75 900 -141 489 -396
892 -762 1207 -102 87 -115 97 -225 172 -40 27 -85 57 -100 67 -51 36 -254
138 -343 174 -173 70 -265 97 -475 141 -115 24 -147 26 -415 29 -159 2 -303 1
-320 -1z m645 -43 c25 -5 83 -16 130 -26 603 -120 1168 -505 1522 -1037 101
-152 215 -386 271 -558 45 -137 55 -174 72 -260 10 -47 21 -103 25 -125 5 -22
14 -124 21 -226 13 -188 3 -434 -21 -556 -33 -163 -74 -328 -90 -355 -6 -10
-10 -23 -10 -28 0 -35 -110 -278 -195 -430 -164 -293 -455 -599 -769 -810 -71
-48 -335 -187 -411 -217 -110 -44 -274 -95 -357 -113 -27 -5 -67 -14 -90 -19
-61 -13 -277 -39 -383 -45 -90 -6 -250 4 -420 24 -284 34 -665 171 -925 333
-514 321 -896 827 -1058 1402 -111 392 -121 853 -28 1215 64 245 121 397 215
569 23 41 41 75 41 78 0 3 90 140 148 224 32 47 160 197 222 260 391 398 919
653 1475 713 68 7 567 -3 615 -13z"/>
<path d="M2290 3903 c-73 -114 -155 -241 -181 -281 -27 -41 -49 -78 -49 -83 0
-28 -37 1 -92 71 -35 44 -68 80 -73 80 -6 0 -55 -75 -110 -167 -144 -244 -129
-228 -182 -187 -18 14 -40 24 -47 22 -7 -2 -56 -57 -108 -123 -78 -100 -344
-439 -551 -702 -34 -44 -45 -64 -35 -68 7 -3 112 -6 233 -7 l220 -3 8 -183 c8
-179 8 -185 -12 -206 -12 -12 -21 -34 -21 -49 0 -45 75 -99 95 -67 15 24 23 6
30 -62 9 -94 30 -138 77 -161 49 -24 117 -13 134 22 7 12 16 26 20 31 5 5 63
-34 129 -86 66 -52 129 -94 141 -94 19 0 21 -7 27 -96 7 -104 37 -219 70 -269
36 -55 80 -79 135 -72 114 14 152 27 168 59 16 30 16 31 77 24 215 -21 429
-16 585 15 38 8 57 8 66 0 20 -16 453 108 475 137 9 11 32 28 51 37 44 22 87
62 106 97 31 60 7 160 -46 188 -17 9 -19 17 -13 53 3 23 12 48 20 55 19 20 28
59 28 129 0 48 -5 69 -23 92 -26 35 -27 49 -7 75 19 26 19 66 -1 94 -11 15
-17 56 -21 132 l-6 110 277 0 c197 0 276 3 276 11 0 6 -32 57 -71 113 -39 55
-149 214 -246 351 -96 138 -190 274 -210 303 -19 28 -40 52 -46 52 -6 0 -23
-11 -37 -25 l-26 -25 -60 85 c-154 221 -284 400 -291 402 -4 1 -39 -38 -77
-87 -38 -50 -74 -90 -81 -90 -6 0 -57 56 -114 125 l-102 125 -44 -30 c-24 -17
-48 -30 -53 -30 -5 0 -34 37 -65 83 -127 188 -194 281 -204 284 -6 2 -70 -90
-143 -204z m130 101 c0 -14 5 -137 11 -273 l10 -246 75 -112 75 -113 -22 -97
c-12 -54 -24 -101 -28 -104 -3 -4 -29 -9 -58 -13 l-52 -7 -181 226 c-112 139
-179 232 -176 241 3 8 27 47 53 87 26 39 83 128 126 197 144 227 152 240 159
240 5 0 8 -12 8 -26z m149 -133 c56 -83 109 -155 116 -161 11 -9 24 -5 61 21
40 27 49 30 58 17 6 -8 49 -61 96 -117 47 -57 86 -107 88 -111 3 -8 -154 -213
-306 -402 -48 -60 -77 -80 -94 -63 -6 6 28 180 38 197 3 5 -29 61 -72 124
l-78 114 -7 182 c-4 101 -11 220 -14 266 -4 47 -3 82 2 82 5 0 56 -67 112
-149z m768 -417 c76 -108 149 -210 162 -226 l24 -29 28 27 c15 14 32 24 37 20
5 -3 39 -49 76 -103 37 -54 97 -141 134 -193 189 -269 312 -449 312 -454 0 -3
-109 -6 -242 -6 l-243 0 33 26 c41 32 44 79 8 121 -31 35 -46 24 -52 -38 -8
-70 -14 -93 -24 -83 -4 5 -47 86 -95 179 -49 97 -98 179 -113 192 -15 12 -55
35 -89 53 -65 32 -70 40 -53 84 8 22 0 45 -50 150 -33 69 -58 131 -55 138 2 7
11 72 20 143 20 166 25 195 35 195 5 0 71 -88 147 -196z m-1397 24 c24 -84 45
-158 47 -164 2 -7 -67 -92 -155 -190 l-159 -179 -64 -19 c-138 -39 -231 -98
-254 -160 -12 -34 -45 -198 -45 -227 0 -5 -9 -18 -20 -29 -19 -19 -33 -20
-200 -20 -99 0 -180 3 -180 6 0 3 73 99 163 213 90 113 235 297 322 409 88
111 164 202 170 202 6 0 26 -11 45 -25 19 -14 39 -25 46 -25 6 0 60 81 120
180 60 99 111 180 114 180 4 0 26 -69 50 -152z m1197 105 c-3 -27 -13 -104
-22 -173 l-16 -125 56 -114 c43 -88 54 -121 50 -143 -4 -15 -10 -30 -14 -32
-4 -3 -36 4 -72 14 -72 22 -233 40 -348 40 -43 0 -80 3 -84 6 -3 3 71 103 165
222 93 120 193 247 221 284 29 37 56 67 61 68 5 0 6 -21 3 -47z m-962 -276
c114 -142 205 -260 203 -262 -2 -2 -58 -9 -123 -14 -116 -10 -401 -46 -434
-55 -54 -14 -71 -16 -71 -5 0 6 61 79 135 162 74 83 135 159 135 169 0 10 -16
72 -35 138 -19 66 -35 122 -35 125 0 19 36 -22 225 -258z m820 -308 c39 -5 93
-17 120 -25 64 -20 185 -75 185 -84 0 -3 -280 -12 -622 -19 -343 -6 -675 -16
-738 -21 -63 -4 -194 -11 -290 -15 -157 -5 -173 -4 -156 9 87 70 609 155 1046
170 128 4 376 -4 455 -15z m148 -166 l-113 -4 0 -27 0 -26 -16 23 -16 23 -307
-7 c-168 -4 -310 -11 -314 -15 -5 -4 -4 -43 3 -86 19 -136 50 -315 55 -323 5
-9 58 -7 440 10 132 6 244 15 249 19 4 5 -15 80 -44 169 -28 89 -50 166 -48
171 3 10 23 -38 101 -245 17 -44 35 -86 41 -92 9 -10 37 -8 131 8 66 11 142
24 168 28 81 14 82 0 -19 217 -13 28 -24 55 -24 60 1 5 34 -58 75 -139 65
-129 75 -156 75 -202 0 -62 4 -51 -150 -380 -84 -179 -160 -372 -160 -406 0
-11 -5 -30 -11 -41 -10 -19 -15 -13 -54 60 -24 45 -58 103 -76 129 -48 70
-154 172 -229 221 -90 59 -258 144 -360 182 -124 46 -130 49 -135 62 -4 13
-23 162 -50 408 -8 69 -17 142 -20 162 l-5 37 67 4 c38 2 246 3 463 3 217 0
344 -2 283 -3z m-843 -13 c0 -5 -1 -11 -2 -12 -2 -1 -84 -4 -183 -7 l-180 -6
-16 -110 c-9 -60 -20 -142 -24 -181 l-6 -71 68 -13 c37 -7 82 -20 98 -28 17
-9 65 -19 107 -22 108 -9 189 -50 202 -103 5 -20 7 -39 4 -42 -3 -3 -34 3 -69
14 -35 11 -89 26 -119 34 -30 9 -109 31 -175 50 -66 20 -214 63 -330 96 -296
86 -319 93 -329 101 -9 9 30 222 46 253 6 12 21 17 53 17 l43 0 -10 -36 c-22
-80 -36 -209 -24 -221 6 -6 47 -19 91 -27 44 -9 109 -22 145 -30 146 -31 138
-31 149 11 20 76 53 284 47 298 -3 9 -19 15 -38 16 -68 1 -6 10 133 18 214 12
319 12 319 1z m-542 -27 c-32 -2 -86 -2 -120 0 -35 2 -9 3 57 3 66 0 94 -1 63
-3z m1889 -235 c-3 -7 -5 -2 -5 12 0 14 2 19 5 13 2 -7 2 -19 0 -25z m-1467
-43 c21 -22 22 -30 14 -62 -12 -51 -50 -71 -92 -49 -48 25 -56 74 -20 113 28
30 68 30 98 -2z m-735 -67 l75 -22 0 -219 c0 -143 -3 -216 -10 -212 -5 3 -10
12 -10 19 0 27 -81 86 -118 86 -17 0 -19 11 -25 137 -9 187 -9 233 3 233 6 0
44 -10 85 -22z m854 -38 c30 -8 41 -16 41 -30 0 -26 -1 -26 -60 11 -48 30 -66
47 -36 36 8 -3 33 -11 55 -17z m-677 -14 c29 -8 85 -24 124 -35 l71 -22 7 -76
c3 -42 6 -188 6 -324 l0 -249 -135 107 -135 108 0 252 c0 139 2 253 5 253 2 0
28 -6 57 -14z m371 -106 c37 -11 100 -29 140 -41 161 -47 238 -72 242 -79 13
-22 36 -290 41 -502 l7 -238 -34 6 c-204 35 -201 33 -233 138 -37 117 -61 170
-98 212 -57 65 -115 80 -162 43 l-26 -20 0 89 c0 49 -3 164 -7 257 l-6 168 34
-7 c19 -3 64 -15 102 -26z m1580 -110 c-4 -38 -2 -65 6 -73 8 -11 3 -22 -23
-49 -73 -75 -74 -216 -1 -264 24 -16 26 -21 23 -88 l-3 -70 -40 -23 c-47 -27
-232 -90 -240 -81 -3 3 1 30 9 61 28 109 89 257 199 489 30 64 58 125 62 137
11 35 13 24 8 -39z m47 -9 c0 -11 -4 -23 -10 -26 -6 -4 -10 5 -10 19 0 14 5
26 10 26 6 0 10 -9 10 -19z m-1097 -43 c202 -79 382 -185 481 -282 81 -80 206
-279 206 -328 0 -11 -23 -20 -82 -33 -237 -49 -390 -68 -543 -63 l-120 3 -7
250 c-3 138 -11 282 -17 320 -21 150 -22 165 -11 165 6 0 48 -14 93 -32z
m-1108 -78 c12 -20 -8 -59 -37 -71 -28 -12 -33 -11 -50 11 -30 37 -13 55 34
35 11 -4 18 0 23 14 7 22 20 27 30 11z m2207 -17 c22 -26 29 -78 17 -131 -18
-82 -65 -108 -94 -52 -27 53 -14 140 29 183 22 21 29 21 48 0z m33 -383 c20
-39 19 -65 -6 -110 -20 -36 -90 -90 -116 -90 -8 0 -13 13 -13 35 0 46 -16 51
-80 30 -53 -18 -77 -16 -37 2 12 6 54 23 92 38 86 32 111 52 120 93 8 40 20
41 40 2z m-1582 -125 c19 -84 22 -152 7 -175 -7 -11 -11 -8 -20 15 -24 62 -39
213 -23 228 15 15 21 4 36 -68z m1280 -32 c-7 -2 -19 -2 -25 0 -7 3 -2 5 12 5
14 0 19 -2 13 -5z m-160 -40 c-7 -2 -19 -2 -25 0 -7 3 -2 5 12 5 14 0 19 -2
13 -5z m-50 -10 c-7 -2 -19 -2 -25 0 -7 3 -2 5 12 5 14 0 19 -2 13 -5z m-808
-33 c157 -30 298 -35 468 -16 82 9 170 21 195 27 91 20 107 22 97 11 -5 -5
-19 -12 -30 -14 -17 -3 -20 -12 -23 -61 -2 -31 -6 -57 -10 -57 -4 0 -61 -9
-127 -20 -167 -27 -392 -27 -527 0 -150 31 -198 62 -198 126 0 35 1 36 28 29
15 -3 72 -15 127 -25z"/>
<path d="M2493 2075 c-57 -40 -20 -145 52 -145 44 0 85 43 85 91 0 54 -88 89
-137 54z m86 -29 c7 -8 11 -27 9 -43 -6 -51 -88 -41 -88 11 0 42 53 63 79 32z"/>
<path d="M2622 1913 c-42 -21 -79 -64 -93 -112 -16 -54 16 -127 74 -165 37
-24 50 -27 102 -24 74 4 119 33 146 92 24 53 24 80 -2 133 -39 81 -145 117
-227 76z m110 -23 c53 -15 98 -70 98 -121 0 -70 -62 -129 -135 -129 -39 0 -98
34 -117 68 -46 79 10 174 112 191 3 1 22 -4 42 -9z"/>
<path d="M3664 1247 c-3 -8 9 -36 25 -63 44 -68 42 -78 -16 -70 -82 12 -87 12
-91 -5 -2 -13 12 -17 83 -23 66 -5 97 -12 129 -31 39 -23 56 -24 56 -4 0 4
-19 19 -41 32 -37 22 -119 130 -119 157 0 16 -20 22 -26 7z"/>
<path d="M1428 1155 c-20 -14 -41 -25 -47 -25 -5 0 -11 -4 -13 -9 -1 -5 -22
-18 -45 -29 l-43 -20 -24 29 c-22 26 -46 38 -46 24 0 -15 47 -76 62 -81 10 -3
41 8 70 25 29 16 74 42 101 57 44 25 55 43 31 51 -5 2 -26 -8 -46 -22z"/>
<path d="M1496 960 c-89 -93 -93 -111 -40 -170 51 -57 86 -55 156 7 86 76 98
87 98 101 0 24 -23 11 -92 -53 -51 -47 -78 -65 -98 -65 -36 0 -60 29 -60 70 0
29 10 44 71 100 59 55 68 68 56 78 -12 10 -28 -2 -91 -68z"/>
<path d="M3421 935 c-52 -60 -38 -119 46 -189 59 -50 136 -32 171 40 16 34 16
37 -7 80 -34 63 -88 104 -139 104 -33 0 -45 -6 -71 -35z m147 -39 c13 -11 30
-35 39 -53 14 -30 14 -35 -1 -58 -28 -43 -59 -51 -99 -26 -45 28 -87 83 -87
114 0 16 12 35 31 51 29 25 31 25 62 10 18 -9 42 -26 55 -38z"/>
<path d="M1803 778 c-19 -9 -33 -35 -33 -65 0 -6 18 -31 40 -55 45 -49 53 -92
19 -103 -30 -10 -71 11 -91 46 -10 17 -22 27 -28 24 -20 -12 -10 -34 32 -69
62 -53 119 -47 141 17 9 25 -9 65 -49 109 -29 32 -33 42 -24 58 6 12 21 20 36
20 25 0 74 -40 74 -60 0 -5 7 -10 15 -10 38 0 -1 65 -51 86 -39 16 -51 17 -81
2z"/>
<path d="M3220 772 c0 -4 23 -43 50 -87 60 -95 64 -131 18 -148 -21 -8 -24
-27 -4 -27 23 0 76 50 76 72 0 11 -15 43 -33 71 -19 29 -44 69 -56 90 -20 33
-51 51 -51 29z"/>
<path d="M2060 656 c0 -8 16 -16 40 -20 22 -3 40 -12 40 -19 0 -6 -14 -56 -32
-110 -25 -80 -29 -100 -18 -107 11 -7 20 13 43 83 36 118 39 123 68 118 42 -7
58 -6 59 4 1 9 -160 65 -187 65 -7 0 -13 -6 -13 -14z"/>
<path d="M3014 657 c-2 -7 7 -48 21 -91 14 -43 23 -81 20 -84 -3 -3 -39 27
-79 67 -57 56 -79 72 -97 69 -19 -2 -23 -8 -21 -28 4 -39 64 -220 73 -220 19
0 17 23 -11 106 -35 104 -33 94 -19 94 6 0 44 -34 86 -75 69 -67 99 -86 115
-70 6 7 -17 96 -37 140 -7 17 -16 47 -20 68 -7 37 -21 48 -31 24z"/>
<path d="M2613 583 l-51 -4 4 -77 c3 -42 7 -101 10 -129 5 -52 6 -53 37 -52
112 2 162 39 53 39 l-66 0 0 39 c0 41 11 51 55 51 13 0 30 3 39 6 29 11 5 24
-45 24 l-49 0 0 40 0 40 60 0 c47 0 60 3 60 15 0 10 -9 14 -27 13 -16 -1 -51
-3 -80 -5z"/>
</g>
</svg>
